<svg version="1.1" id="Layer_1" xmlns="http://www.w3.org/2000/svg" xmlns:xlink="http://www.w3.org/1999/xlink" x="0px" y="0px"
	 width="100%" viewBox="0 0 574 237" enable-background="new 0 0 574 237" xml:space="preserve">
<path fill="#FFFFFF" opacity="1.000000" stroke="none" 
	d="
M575.000000,2.000000 
	C575.000000,80.024078 575.000000,158.048157 574.773438,236.633362 
	C574.278503,237.404526 574.096191,237.673019 574.000000,238.000000 
	C383.975922,238.000000 193.951843,238.000000 3.465549,237.531342 
	C3.002221,158.375122 3.001110,79.687561 3.000000,1.000000 
	C193.024094,1.000000 383.048187,1.000000 573.640564,1.223404 
	C574.395996,1.740698 574.659729,1.925096 575.000000,2.000000 
M107.256889,93.012787 
	C102.410095,96.137833 97.534302,99.219040 92.724518,102.400040 
	C87.744667,105.693527 82.460823,108.657097 77.969986,112.530258 
	C70.974480,118.563591 71.368370,127.704269 78.763611,133.035797 
	C84.934715,137.484802 91.604828,141.241638 98.006920,146.199768 
	C98.005226,147.695114 98.025948,149.190887 97.998390,150.685760 
	C97.701569,166.785889 98.953697,163.831497 111.149033,163.979919 
	C114.858452,164.025055 118.908508,164.929672 122.002792,161.001129 
	C136.836746,170.447784 151.666275,179.901398 166.507904,189.335983 
	C170.006958,191.560272 173.415955,193.975830 177.093658,195.859711 
	C186.102127,200.474319 194.590622,195.548126 194.899857,185.484116 
	C195.118851,178.356476 194.849670,171.213821 195.576355,163.964584 
	C196.715729,162.365387 198.808975,160.786407 198.843353,159.163788 
	C199.115143,146.338074 198.994476,133.504013 198.994476,120.277481 
	C200.581299,119.921494 202.629959,119.461899 204.862747,119.878571 
	C205.337631,139.144318 219.596237,154.653641 238.050369,155.977295 
	C254.304977,157.143204 271.100067,147.164124 273.023926,135.054459 
	C271.006775,135.054459 269.007019,135.159866 267.022003,135.033630 
	C262.118286,134.721741 257.852753,135.265945 253.933746,139.143417 
	C249.390869,143.638168 243.173447,143.893921 237.044846,142.995819 
	C228.227371,141.703659 220.306564,133.847794 218.317169,124.483360 
	C216.309860,115.034576 220.663528,104.882370 228.860443,99.897728 
	C236.692535,95.134941 249.071838,95.074013 254.969574,101.192764 
	C260.714874,107.153397 266.910950,104.231667 273.451111,105.081406 
	C265.982941,88.241173 247.367844,80.078209 230.126740,85.575623 
	C216.147461,90.032990 208.288025,100.047173 204.419815,113.587570 
	C202.761703,109.197617 199.540894,107.446762 194.983429,107.052391 
	C194.980392,91.420815 195.152313,75.786591 194.915573,60.158554 
	C194.744797,48.884159 186.394791,43.968075 176.562271,49.021084 
	C174.941406,49.854069 173.412354,50.871849 171.869110,51.848835 
	C160.222580,59.221901 148.583084,66.606117 136.150833,74.082550 
	C131.845993,75.076233 127.480141,75.863960 123.251884,77.116249 
	C118.086212,78.646172 113.574715,81.208069 111.260445,86.529350 
	C110.285728,88.770538 109.074036,90.908669 107.256889,93.012787 
M315.177429,153.958527 
	C317.405273,152.423584 319.633118,150.888657 322.144684,149.158234 
	C322.238586,151.268051 322.311096,152.896805 322.386810,154.597717 
	C326.287445,154.597717 329.981598,154.597717 333.583527,154.597717 
	C333.583527,137.258133 333.583527,120.333511 333.583527,103.342392 
	C329.705841,103.342392 326.123932,103.342392 322.546844,103.342392 
	C322.315552,105.290619 322.118225,106.952408 321.887329,108.897095 
	C311.586700,100.007164 298.188080,99.664177 288.287933,107.665077 
	C278.372131,115.678635 275.576660,131.585480 282.046997,143.177780 
	C288.262512,154.313553 301.625519,158.861084 315.177429,153.958527 
M456.033295,103.258209 
	C455.265656,103.566681 454.484161,103.844788 453.732452,104.188148 
	C441.418823,109.812515 435.047668,122.446968 438.020355,135.329163 
	C440.833984,147.522125 452.321075,156.123810 465.659058,156.025436 
	C478.538635,155.930435 489.840759,146.689636 492.375916,134.181274 
	C496.452393,114.067986 478.052338,97.953316 456.033295,103.258209 
M394.983368,131.501923 
	C397.832062,127.818344 400.300842,123.741096 403.616577,120.541512 
	C408.863647,115.478157 408.617493,109.554016 407.969238,103.339996 
	C396.079956,103.339996 384.525116,103.339996 373.181946,103.339996 
	C373.181946,107.122581 373.181946,110.554047 373.181946,114.485016 
	C379.662842,114.485016 385.862396,114.485016 392.895264,114.485016 
	C386.311005,122.939270 380.664398,130.979477 374.168640,138.262299 
	C369.567535,143.420914 369.826355,148.842743 370.456360,154.680664 
	C383.848572,154.680664 396.914276,154.680664 409.839294,154.680664 
	C409.839294,150.922318 409.839294,147.490616 409.839294,143.644257 
	C401.867493,143.644257 394.155548,143.644257 385.528473,143.644257 
	C388.894226,139.302948 391.708618,135.672775 394.983368,131.501923 
M356.238403,121.440468 
	C357.699432,116.023033 361.891174,114.161308 366.757690,113.748131 
	C366.757690,109.531815 366.757690,105.774094 366.757690,100.746376 
	C362.454041,102.474121 358.811096,103.936615 355.292633,105.349136 
	C352.505341,100.297020 347.514496,104.149147 343.360168,102.827446 
	C343.360168,120.560204 343.360168,137.585785 343.360168,154.779861 
	C347.503815,154.779861 351.402130,154.779861 356.086761,154.779861 
	C356.086761,143.794510 356.086761,133.038605 356.238403,121.440468 
M417.007385,151.328186 
	C416.625122,153.936584 417.325684,155.338684 420.386444,155.060638 
	C423.287292,154.797134 426.230865,155.003983 429.214111,155.003983 
	C429.214111,137.381927 429.214111,120.326172 429.214111,103.292877 
	C425.068695,103.292877 421.162781,103.292877 417.007355,103.292877 
	C417.007355,119.179443 417.007355,134.770416 417.007385,151.328186 
M417.007355,87.531082 
	C417.007355,89.958061 417.007355,92.385040 417.007355,94.834473 
	C421.434418,94.834473 425.220490,94.834473 429.100708,94.834473 
	C429.100708,90.781235 429.100708,86.902344 429.100708,82.749146 
	C425.936859,82.749146 423.100555,82.955864 420.307922,82.694839 
	C417.089142,82.393990 416.717010,84.100662 417.007355,87.531082 
z"/>
<path fill="#EBEDF1" opacity="1.000000" stroke="none" 
	d="
M2.500000,1.000000 
	C3.001110,79.687561 3.002221,158.375122 3.001665,237.531342 
	C2.333333,237.835068 1.148944,237.773834 1.091471,237.486877 
	C0.867283,236.367538 1.000000,235.176712 1.000000,234.012466 
	C1.000000,157.671509 0.994929,81.330551 1.041621,4.989618 
	C1.042434,3.659551 1.666667,2.329864 2.500000,1.000000 
z"/>
<path fill="#E7E9EE" opacity="1.000000" stroke="none" 
	d="
M575.000000,1.500000 
	C574.659729,1.925096 574.395996,1.740698 574.104431,1.223404 
	C574.333313,1.000000 574.666687,1.000000 575.000000,1.500000 
z"/>
<path fill="#E7E9EE" opacity="1.000000" stroke="none" 
	d="
M574.500000,238.000000 
	C574.096191,237.673019 574.278503,237.404526 574.773438,237.097260 
	C575.000000,237.333328 575.000000,237.666672 574.500000,238.000000 
z"/>
<path fill="#FEFAED" opacity="1.000000" stroke="none" 
	d="
M121.360977,160.815704 
	C118.908508,164.929672 114.858452,164.025055 111.149033,163.979919 
	C98.953697,163.831497 97.701569,166.785889 97.998390,150.685760 
	C98.025948,149.190887 98.005226,147.695114 98.077835,145.263779 
	C98.148743,136.199051 98.148743,128.070312 98.148743,120.614464 
	C96.437485,119.289871 93.365524,118.121872 93.031136,116.416954 
	C92.170280,112.027756 95.699974,108.639763 100.273369,108.129753 
	C101.596420,107.982216 103.733833,107.616631 104.008438,106.830620 
	C105.577820,102.338562 106.697586,97.689430 107.970062,93.093643 
	C109.074036,90.908669 110.285728,88.770538 111.260445,86.529350 
	C113.574715,81.208069 118.086212,78.646172 123.251884,77.116249 
	C127.480141,75.863960 131.845993,75.076233 136.802643,74.377853 
	C140.611053,74.687019 143.781189,74.517578 146.921692,74.749413 
	C156.006439,75.420036 165.119370,75.946404 174.142349,77.130501 
	C179.951645,77.892860 183.976395,81.416695 185.862381,87.312576 
	C187.733032,93.160393 189.969559,98.897339 192.233643,104.608383 
	C192.743134,105.893562 194.032562,106.869537 194.962952,107.987862 
	C199.540894,107.446762 202.761703,109.197617 204.746704,114.211472 
	C204.941925,116.224350 204.810272,117.613327 204.678619,119.002304 
	C202.629959,119.461899 200.581299,119.921494 198.994476,120.277481 
	C198.994476,133.504013 199.115143,146.338074 198.843353,159.163788 
	C198.808975,160.786407 196.715729,162.365387 194.733673,164.029892 
	C191.396851,164.092987 188.902740,164.089264 186.408615,164.088837 
	C177.192169,164.087265 177.200363,164.087326 176.810867,155.068649 
	C176.784897,154.467270 176.495346,153.877274 176.360504,153.396515 
	C157.687515,153.396515 139.285553,153.396515 120.144447,153.396515 
	C120.587601,156.099152 120.974289,158.457428 121.360977,160.815704 
M126.740967,83.964836 
	C124.966583,84.701653 122.191277,84.965584 121.582909,86.253273 
	C118.064293,93.700951 115.056892,101.390160 111.581749,109.702446 
	C136.880157,111.581665 160.820160,111.790627 185.897232,109.716614 
	C182.703796,102.326340 179.759415,95.851181 177.116074,89.255379 
	C175.750183,85.847092 173.296021,84.141663 169.926865,84.100037 
	C155.815262,83.925697 141.701202,83.948814 126.740967,83.964836 
M183.814758,133.631760 
	C185.793472,133.745361 187.772858,133.848175 189.750717,133.975189 
	C192.428360,134.147141 193.827942,133.036758 193.632797,130.223648 
	C193.452316,127.622040 193.908691,124.705658 190.142181,124.137665 
	C185.151352,123.385048 173.124054,129.812561 170.437424,135.233658 
	C172.659103,135.623901 174.741486,136.479523 176.655273,136.196213 
	C178.826462,135.874786 180.846680,134.533691 183.814758,133.631760 
M118.357536,135.203369 
	C120.926582,137.516418 123.888657,137.401535 125.631493,134.834946 
	C126.321709,133.818512 124.938591,129.896851 123.579086,129.258682 
	C118.979996,127.099792 114.024323,125.599266 109.078354,124.347099 
	C107.732162,124.006279 104.974701,125.050858 104.562103,126.116638 
	C103.793091,128.103088 103.906395,130.662323 104.437744,132.786758 
	C104.607628,133.466019 107.242340,133.643524 108.776283,133.842453 
	C111.752808,134.228455 114.748444,134.467026 118.357536,135.203369 
z"/>
<path fill="#08050E" opacity="1.000000" stroke="none" 
	d="
M204.770676,119.440437 
	C204.810272,117.613327 204.941925,116.224350 205.016479,114.419601 
	C208.288025,100.047173 216.147461,90.032990 230.126740,85.575623 
	C247.367844,80.078209 265.982941,88.241173 273.451111,105.081406 
	C266.910950,104.231667 260.714874,107.153397 254.969574,101.192764 
	C249.071838,95.074013 236.692535,95.134941 228.860443,99.897728 
	C220.663528,104.882370 216.309860,115.034576 218.317169,124.483360 
	C220.306564,133.847794 228.227371,141.703659 237.044846,142.995819 
	C243.173447,143.893921 249.390869,143.638168 253.933746,139.143417 
	C257.852753,135.265945 262.118286,134.721741 267.022003,135.033630 
	C269.007019,135.159866 271.006775,135.054459 273.023926,135.054459 
	C271.100067,147.164124 254.304977,157.143204 238.050369,155.977295 
	C219.596237,154.653641 205.337631,139.144318 204.770676,119.440437 
z"/>
<path fill="#B53B3B" opacity="1.000000" stroke="none" 
	d="
M121.681885,160.908417 
	C120.974289,158.457428 120.587601,156.099152 120.144447,153.396515 
	C139.285553,153.396515 157.687515,153.396515 176.360504,153.396515 
	C176.495346,153.877274 176.784897,154.467270 176.810867,155.068649 
	C177.200363,164.087326 177.192169,164.087265 186.408615,164.088837 
	C188.902740,164.089264 191.396851,164.092987 194.344696,164.086548 
	C194.849670,171.213821 195.118851,178.356476 194.899857,185.484116 
	C194.590622,195.548126 186.102127,200.474319 177.093658,195.859711 
	C173.415955,193.975830 170.006958,191.560272 166.507904,189.335983 
	C151.666275,179.901398 136.836746,170.447784 121.681885,160.908417 
z"/>
<path fill="#09060F" opacity="1.000000" stroke="none" 
	d="
M314.807770,154.079651 
	C301.625519,158.861084 288.262512,154.313553 282.046997,143.177780 
	C275.576660,131.585480 278.372131,115.678635 288.287933,107.665077 
	C298.188080,99.664177 311.586700,100.007164 321.887329,108.897095 
	C322.118225,106.952408 322.315552,105.290619 322.546844,103.342392 
	C326.123932,103.342392 329.705841,103.342392 333.583527,103.342392 
	C333.583527,120.333511 333.583527,137.258133 333.583527,154.597717 
	C329.981598,154.597717 326.287445,154.597717 322.386810,154.597717 
	C322.311096,152.896805 322.238586,151.268051 322.144684,149.158234 
	C319.633118,150.888657 317.405273,152.423584 314.807770,154.079651 
M320.043243,137.241287 
	C320.558990,135.844467 321.236237,134.484390 321.563934,133.044769 
	C323.515442,124.470688 318.361053,115.742485 310.429962,114.065590 
	C300.913025,112.053391 293.029053,117.342606 291.387146,126.841087 
	C290.169739,133.883636 293.563354,140.470078 299.841583,143.249741 
	C307.122986,146.473526 314.443146,144.508621 320.043243,137.241287 
z"/>
<path fill="#08050E" opacity="1.000000" stroke="none" 
	d="
M456.426392,103.149689 
	C478.052338,97.953316 496.452393,114.067986 492.375916,134.181274 
	C489.840759,146.689636 478.538635,155.930435 465.659058,156.025436 
	C452.321075,156.123810 440.833984,147.522125 438.020355,135.329163 
	C435.047668,122.446968 441.418823,109.812515 453.732452,104.188148 
	C454.484161,103.844788 455.265656,103.566681 456.426392,103.149689 
M455.046906,140.527695 
	C461.763855,145.313370 468.635498,145.546249 474.260010,141.178833 
	C479.566071,137.058701 481.670593,129.975952 479.251495,123.757072 
	C476.949066,117.838158 472.651184,114.337967 466.203461,113.831619 
	C459.940186,113.339752 454.225494,116.459297 451.575806,122.085831 
	C448.487854,128.642944 449.626709,134.668472 455.046906,140.527695 
z"/>
<path fill="#B63B3B" opacity="1.000000" stroke="none" 
	d="
M194.973190,107.520126 
	C194.032562,106.869537 192.743134,105.893562 192.233643,104.608383 
	C189.969559,98.897339 187.733032,93.160393 185.862381,87.312576 
	C183.976395,81.416695 179.951645,77.892860 174.142349,77.130501 
	C165.119370,75.946404 156.006439,75.420036 146.921692,74.749413 
	C143.781189,74.517578 140.611053,74.687019 137.197937,74.330017 
	C148.583084,66.606117 160.222580,59.221901 171.869110,51.848835 
	C173.412354,50.871849 174.941406,49.854069 176.562271,49.021084 
	C186.394791,43.968075 194.744797,48.884159 194.915573,60.158554 
	C195.152313,75.786591 194.980392,91.420815 194.973190,107.520126 
z"/>
<path fill="#06030C" opacity="1.000000" stroke="none" 
	d="
M394.753204,131.772263 
	C391.708618,135.672775 388.894226,139.302948 385.528473,143.644257 
	C394.155548,143.644257 401.867493,143.644257 409.839294,143.644257 
	C409.839294,147.490616 409.839294,150.922318 409.839294,154.680664 
	C396.914276,154.680664 383.848572,154.680664 370.456360,154.680664 
	C369.826355,148.842743 369.567535,143.420914 374.168640,138.262299 
	C380.664398,130.979477 386.311005,122.939270 392.895264,114.485016 
	C385.862396,114.485016 379.662842,114.485016 373.181946,114.485016 
	C373.181946,110.554047 373.181946,107.122581 373.181946,103.339996 
	C384.525116,103.339996 396.079956,103.339996 407.969238,103.339996 
	C408.617493,109.554016 408.863647,115.478157 403.616577,120.541512 
	C400.300842,123.741096 397.832062,127.818344 394.753204,131.772263 
z"/>
<path fill="#0C0912" opacity="1.000000" stroke="none" 
	d="
M356.162598,121.861580 
	C356.086761,133.038605 356.086761,143.794510 356.086761,154.779861 
	C351.402130,154.779861 347.503815,154.779861 343.360168,154.779861 
	C343.360168,137.585785 343.360168,120.560204 343.360168,102.827446 
	C347.514496,104.149147 352.505341,100.297020 355.292633,105.349136 
	C358.811096,103.936615 362.454041,102.474121 366.757690,100.746376 
	C366.757690,105.774094 366.757690,109.531815 366.757690,113.748131 
	C361.891174,114.161308 357.699432,116.023033 356.162598,121.861580 
z"/>
<path fill="#B63C3C" opacity="1.000000" stroke="none" 
	d="
M107.613480,93.053215 
	C106.697586,97.689430 105.577820,102.338562 104.008438,106.830620 
	C103.733833,107.616631 101.596420,107.982216 100.273369,108.129753 
	C95.699974,108.639763 92.170280,112.027756 93.031136,116.416954 
	C93.365524,118.121872 96.437485,119.289871 98.148743,120.614464 
	C98.148743,128.070312 98.148743,136.199051 98.101349,144.816406 
	C91.604828,141.241638 84.934715,137.484802 78.763611,133.035797 
	C71.368370,127.704269 70.974480,118.563591 77.969986,112.530258 
	C82.460823,108.657097 87.744667,105.693527 92.724518,102.400040 
	C97.534302,99.219040 102.410095,96.137833 107.613480,93.053215 
z"/>
<path fill="#06030B" opacity="1.000000" stroke="none" 
	d="
M417.007385,150.844788 
	C417.007355,134.770416 417.007355,119.179443 417.007355,103.292877 
	C421.162781,103.292877 425.068695,103.292877 429.214111,103.292877 
	C429.214111,120.326172 429.214111,137.381927 429.214111,155.003983 
	C426.230865,155.003983 423.287292,154.797134 420.386444,155.060638 
	C417.325684,155.338684 416.625122,153.936584 417.007385,150.844788 
z"/>
<path fill="#06030B" opacity="1.000000" stroke="none" 
	d="
M417.007385,87.051651 
	C416.717010,84.100662 417.089142,82.393990 420.307922,82.694839 
	C423.100555,82.955864 425.936859,82.749146 429.100708,82.749146 
	C429.100708,86.902344 429.100708,90.781235 429.100708,94.834473 
	C425.220490,94.834473 421.434418,94.834473 417.007355,94.834473 
	C417.007355,92.385040 417.007355,89.958061 417.007385,87.051651 
z"/>
<path fill="#B53939" opacity="1.000000" stroke="none" 
	d="
M127.164505,83.932220 
	C141.701202,83.948814 155.815262,83.925697 169.926865,84.100037 
	C173.296021,84.141663 175.750183,85.847092 177.116074,89.255379 
	C179.759415,95.851181 182.703796,102.326340 185.897232,109.716614 
	C160.820160,111.790627 136.880157,111.581665 111.581749,109.702446 
	C115.056892,101.390160 118.064293,93.700951 121.582909,86.253273 
	C122.191277,84.965584 124.966583,84.701653 127.164505,83.932220 
z"/>
<path fill="#B94544" opacity="1.000000" stroke="none" 
	d="
M183.373657,133.633820 
	C180.846680,134.533691 178.826462,135.874786 176.655273,136.196213 
	C174.741486,136.479523 172.659103,135.623901 170.437424,135.233658 
	C173.124054,129.812561 185.151352,123.385048 190.142181,124.137665 
	C193.908691,124.705658 193.452316,127.622040 193.632797,130.223648 
	C193.827942,133.036758 192.428360,134.147141 189.750717,133.975189 
	C187.772858,133.848175 185.793472,133.745361 183.373657,133.633820 
z"/>
<path fill="#B7403F" opacity="1.000000" stroke="none" 
	d="
M118.046852,134.985016 
	C114.748444,134.467026 111.752808,134.228455 108.776283,133.842453 
	C107.242340,133.643524 104.607628,133.466019 104.437744,132.786758 
	C103.906395,130.662323 103.793091,128.103088 104.562103,126.116638 
	C104.974701,125.050858 107.732162,124.006279 109.078354,124.347099 
	C114.024323,125.599266 118.979996,127.099792 123.579086,129.258682 
	C124.938591,129.896851 126.321709,133.818512 125.631493,134.834946 
	C123.888657,137.401535 120.926582,137.516418 118.046852,134.985016 
z"/>
<path fill="#FAFAFA" opacity="1.000000" stroke="none" 
	d="
M319.865021,137.582031 
	C314.443146,144.508621 307.122986,146.473526 299.841583,143.249741 
	C293.563354,140.470078 290.169739,133.883636 291.387146,126.841087 
	C293.029053,117.342606 300.913025,112.053391 310.429962,114.065590 
	C318.361053,115.742485 323.515442,124.470688 321.563934,133.044769 
	C321.236237,134.484390 320.558990,135.844467 319.865021,137.582031 
z"/>
<path fill="#FBFBFB" opacity="1.000000" stroke="none" 
	d="
M454.780640,140.263199 
	C449.626709,134.668472 448.487854,128.642944 451.575806,122.085831 
	C454.225494,116.459297 459.940186,113.339752 466.203461,113.831619 
	C472.651184,114.337967 476.949066,117.838158 479.251495,123.757072 
	C481.670593,129.975952 479.566071,137.058701 474.260010,141.178833 
	C468.635498,145.546249 461.763855,145.313370 454.780640,140.263199 
z"/>
</svg>